<svg xmlns="http://www.w3.org/2000/svg" viewBox="0 0 32 32">
  <defs>
    <linearGradient id="steamFavGrad" x1="0%" y1="100%" x2="0%" y2="0%">
      <stop offset="0%" stop-color="#FF9933" />
      <stop offset="100%" stop-color="#FFD700" />
    </linearGradient>
    <linearGradient id="cupFavGrad" x1="0%" y1="0%" x2="0%" y2="100%">
      <stop offset="0%" stop-color="#4A2C20" />
      <stop offset="100%" stop-color="#2D1810" />
    </linearGradient>
  </defs>
  <!-- Steam S -->
  <path d="M14 14 C13 11 18 10 17 8 C16 6 12 7 15 3 C16 2.5 17 2.7 16.5 3.3 C14.5 5.5 18 5 18.5 7.5 C19 9.5 14.5 10.5 15.2 12.5 C15.5 13.5 14.3 13.8 14 14 Z" fill="url(#steamFavGrad)" />
  <!-- Clay Cup -->
  <path d="M10 16 C10 16 9.5 24 11 25 C12.5 26 19.5 26 21 25 C22.5 24 22 16 22 16 Z" fill="url(#cupFavGrad)" stroke="#FFD700" stroke-width="0.75" />
  <ellipse cx="16" cy="16" rx="6" ry="1.5" fill="#4A2C20" stroke="#FFD700" stroke-width="0.75" />
  <ellipse cx="16" cy="16" rx="5" ry="1" fill="#D4A574" />
</svg>
